<svg width="480" height="139" xmlns="http://www.w3.org/2000/svg"><style>.st0{fill:none}</style><path fill="none" id="canvas_background" d="M-1-1h582v402H-1z"/><g><path id="svg_1" d="M448.07-1l-9.62 17.24-8.36 14.96L369.93 139H-1V-1h449.07z"/><path id="svg_2" d="M-1 139h479.92v.01H-1V139z" class="st0"/><path id="svg_5" d="M382.44 116.43l47.65-85.23 8.36-14.96M369.83 139l-.01.01L362 153" class="st0"/><path id="svg_6" fill="#0b72b9" d="M438.76 15.76l-56.42 100.91c-12.52-10.83-20.45-26.82-20.45-44.67 0-32.58 26.42-59 59-59 6.23 0 12.24.97 17.87 2.76z"/><path id="svg_7" d="M479.89 72c0 32.58-26.42 59-59 59-14.73 0-28.21-5.4-38.55-14.33l56.42-100.91c23.85 7.57 41.13 29.89 41.13 56.24z"/><g id="Group_186"><g id="Group_185"><g id="Words"><path d="M435.203 25.813l-.09 80.38-7.67-.01.06-52.25-29.4 52.21-7.94-.01 45.04-80.32z" id="Path_59" fill="#fff"/></g></g></g><path id="svg_8" d="M457-17l-8.93 16-9.62 17.24-8.36 14.96L369.93 139l-.01.01L361 155" class="st0"/><text xml:space="preserve" text-anchor="start" font-family="Helvetica, Arial, sans-serif" font-size="57" id="svg_11" y="61.953" x="265.5" stroke-width="null" stroke="#fff" fill="#fff">Arc</text><text xml:space="preserve" text-anchor="start" font-family="Helvetica, Arial, sans-serif" font-size="57" id="svg_10" y="110.953" x="16.5" stroke-width="null" stroke="#fff" fill="#fff">Development</text></g></svg>